<svg width="130" height="67" viewBox="0 0 130 67" fill="none" xmlns="http://www.w3.org/2000/svg">
<rect x="65" y="16" width="54" height="51" rx="25.5" fill="#0E1276"/>
<path d="M105.608 36.4489H98.5057C98.411 35.7197 98.2169 35.0616 97.9233 34.4744C97.6297 33.8873 97.2415 33.3854 96.7585 32.9688C96.2756 32.5521 95.7027 32.2348 95.0398 32.017C94.3864 31.7898 93.6619 31.6761 92.8665 31.6761C91.4555 31.6761 90.2386 32.0218 89.2159 32.7131C88.2027 33.4044 87.4214 34.4034 86.8722 35.7102C86.3324 37.017 86.0625 38.5985 86.0625 40.4545C86.0625 42.3864 86.3371 44.0057 86.8864 45.3125C87.4451 46.6098 88.2263 47.59 89.2301 48.2528C90.2434 48.9062 91.4413 49.233 92.8239 49.233C93.6004 49.233 94.3059 49.1335 94.9403 48.9347C95.5843 48.7358 96.1477 48.447 96.6307 48.0682C97.1231 47.6799 97.5256 47.2112 97.8381 46.6619C98.16 46.1032 98.3826 45.4735 98.5057 44.7727L105.608 44.8153C105.485 46.1032 105.111 47.3722 104.486 48.6222C103.87 49.8722 103.023 51.0133 101.943 52.0455C100.864 53.0682 99.5473 53.8826 97.9943 54.4886C96.4508 55.0947 94.6799 55.3977 92.6818 55.3977C90.0492 55.3977 87.6913 54.8201 85.608 53.6648C83.5341 52.5 81.8958 50.8049 80.6932 48.5795C79.4905 46.3542 78.8892 43.6458 78.8892 40.4545C78.8892 37.2538 79.5 34.5407 80.7216 32.3153C81.9432 30.09 83.5956 28.3996 85.679 27.2443C87.7623 26.089 90.0966 25.5114 92.6818 25.5114C94.4432 25.5114 96.072 25.7576 97.5682 26.25C99.0644 26.733 100.381 27.4432 101.517 28.3807C102.653 29.3087 103.577 30.4498 104.287 31.804C104.997 33.1581 105.438 34.7064 105.608 36.4489Z" fill="white"/>
<g clip-path="url(#clip0_19_2)">
<rect x="14" width="54" height="51" rx="25.5" fill="#611111"/>
<path d="M30.2017 39V9.90909H42.3324C44.5104 9.90909 46.3333 10.2169 47.8011 10.8324C49.2784 11.4479 50.3864 12.3097 51.125 13.4176C51.8731 14.5256 52.2472 15.8087 52.2472 17.267C52.2472 18.375 52.0152 19.3646 51.5511 20.2358C51.0871 21.0975 50.4479 21.8125 49.6335 22.3807C48.8191 22.9489 47.8769 23.3466 46.8068 23.5739V23.858C47.9811 23.9148 49.0653 24.232 50.0597 24.8097C51.0634 25.3873 51.8684 26.1922 52.4744 27.2244C53.0805 28.2472 53.3835 29.4593 53.3835 30.8608C53.3835 32.4233 52.9858 33.8201 52.1903 35.0511C51.3949 36.2727 50.2443 37.2386 48.7386 37.9489C47.233 38.6496 45.4053 39 43.2557 39H30.2017ZM37.233 33.3324H41.5795C43.1042 33.3324 44.2263 33.0436 44.946 32.4659C45.6752 31.8883 46.0398 31.0833 46.0398 30.0511C46.0398 29.303 45.8646 28.6591 45.5142 28.1193C45.1638 27.5701 44.6667 27.1487 44.0227 26.8551C43.3788 26.5521 42.607 26.4006 41.7074 26.4006H37.233V33.3324ZM37.233 21.8693H41.125C41.892 21.8693 42.5739 21.7415 43.1705 21.4858C43.767 21.2301 44.2311 20.8608 44.5625 20.3778C44.9034 19.8949 45.0739 19.3125 45.0739 18.6307C45.0739 17.6553 44.7282 16.8883 44.0369 16.3295C43.3456 15.7708 42.4129 15.4915 41.2386 15.4915H37.233V21.8693Z" fill="white"/>
</g>
<defs>
<clipPath id="clip0_19_2">
<rect x="14" width="54" height="51" rx="25.5" fill="white"/>
</clipPath>
</defs>
</svg>
